<svg width="151" height="70" viewBox="0 0 151 70" fill="none" xmlns="http://www.w3.org/2000/svg">
<path d="M90.3038 66.25L91.9941 56.0682H95.4295C96.0924 56.0682 96.626 56.1842 97.0304 56.4162C97.4347 56.6482 97.7131 56.9647 97.8656 57.3658C98.0214 57.7668 98.0545 58.2225 97.965 58.733C97.8954 59.1572 97.7645 59.5201 97.5723 59.8217C97.38 60.12 97.1464 60.3636 96.8713 60.5526C96.5995 60.7382 96.3062 60.8724 95.9913 60.9553L95.9764 61.0348C96.3012 61.058 96.6011 61.174 96.8762 61.3828C97.1513 61.5883 97.3568 61.8767 97.4927 62.2479C97.6319 62.6191 97.6601 63.0632 97.5772 63.5803C97.4911 64.094 97.2988 64.553 97.0005 64.9574C96.7056 65.3584 96.3012 65.675 95.7875 65.907C95.277 66.1357 94.6573 66.25 93.9281 66.25H90.3038ZM91.3727 65.4148H94.0673C94.8528 65.4148 95.4627 65.2408 95.8968 64.8928C96.331 64.5447 96.5945 64.1072 96.6873 63.5803C96.7503 63.1925 96.7138 62.8411 96.5779 62.5263C96.4421 62.2081 96.22 61.9562 95.9118 61.7706C95.6035 61.585 95.2207 61.4922 94.7633 61.4922H92.0289L91.3727 65.4148ZM92.1681 60.6669H94.7583C95.1594 60.6669 95.524 60.584 95.8521 60.4183C96.1802 60.2526 96.452 60.0239 96.6674 59.7322C96.8829 59.4406 97.0204 59.1075 97.0801 58.733C97.1729 58.1927 97.0718 57.7536 96.7768 57.4155C96.4851 57.0741 95.9896 56.9034 95.2903 56.9034H92.7846L92.1681 60.6669ZM101.297 66.424C100.837 66.424 100.431 66.3345 100.079 66.1555C99.7279 65.9732 99.466 65.7114 99.2937 65.37C99.1246 65.0253 99.0782 64.6077 99.1545 64.1172C99.2208 63.7393 99.3467 63.4212 99.5323 63.1626C99.7212 62.9041 99.9599 62.692 100.248 62.5263C100.537 62.3572 100.868 62.2247 101.243 62.1286C101.617 62.0324 102.025 61.9595 102.466 61.9098C102.896 61.8568 103.264 61.8104 103.569 61.7706C103.874 61.7308 104.111 61.6679 104.28 61.5817C104.449 61.4955 104.55 61.3563 104.583 61.1641L104.613 60.9851C104.699 60.4647 104.62 60.0554 104.375 59.7571C104.129 59.4555 103.718 59.3047 103.142 59.3047C102.592 59.3047 102.114 59.4273 101.71 59.6726C101.309 59.9145 101.011 60.1979 100.815 60.5227L100.029 60.2195C100.268 59.8018 100.561 59.4687 100.909 59.2202C101.257 58.9683 101.63 58.7876 102.028 58.6783C102.426 58.5656 102.819 58.5092 103.206 58.5092C103.498 58.5092 103.795 58.5473 104.096 58.6236C104.398 58.6998 104.668 58.8324 104.907 59.0213C105.149 59.2069 105.326 59.4671 105.439 59.8018C105.555 60.1333 105.571 60.5542 105.488 61.0646L104.623 66.25H103.738L103.942 65.0419H103.887C103.748 65.2673 103.556 65.486 103.311 65.6982C103.069 65.9103 102.779 66.0843 102.441 66.2202C102.103 66.3561 101.721 66.424 101.297 66.424ZM101.521 65.6136C101.992 65.6136 102.417 65.5092 102.799 65.3004C103.183 65.0916 103.498 64.8149 103.743 64.4702C103.992 64.1222 104.151 63.7393 104.221 63.3217L104.404 62.218C104.332 62.281 104.212 62.3374 104.047 62.3871C103.884 62.4368 103.7 62.4815 103.495 62.5213C103.292 62.5578 103.089 62.5893 102.883 62.6158C102.681 62.6423 102.502 62.6655 102.346 62.6854C101.905 62.7384 101.521 62.8213 101.193 62.9339C100.868 63.0466 100.608 63.2024 100.412 63.4013C100.217 63.5968 100.094 63.8487 100.044 64.157C99.9682 64.621 100.069 64.9806 100.348 65.2358C100.629 65.4877 101.02 65.6136 101.521 65.6136ZM108.26 63.3665L108.439 62.1982H108.638L112.809 58.6136H113.942L109.821 62.1534L109.741 62.1683L108.26 63.3665ZM106.977 66.25L108.668 56.0682H109.553L107.862 66.25H106.977ZM111.75 66.25L109.289 62.3274L110.01 61.7159L112.869 66.25H111.75ZM117.086 66.4091C116.373 66.4091 115.785 66.2434 115.321 65.9119C114.857 65.5772 114.532 65.1148 114.346 64.5249C114.161 63.9316 114.133 63.2488 114.262 62.4766C114.391 61.7076 114.646 61.0249 115.028 60.4283C115.409 59.8284 115.879 59.3594 116.439 59.0213C117 58.6799 117.608 58.5092 118.264 58.5092C118.678 58.5092 119.066 58.5855 119.427 58.7379C119.789 58.8871 120.095 59.1174 120.347 59.429C120.602 59.7372 120.78 60.1267 120.879 60.5973C120.979 61.0646 120.975 61.6181 120.869 62.2578L120.8 62.6953H114.834L114.958 61.9148H120.024C120.107 61.4242 120.084 60.9834 119.954 60.5923C119.825 60.2012 119.605 59.8913 119.293 59.6626C118.985 59.4306 118.602 59.3146 118.145 59.3146C117.677 59.3146 117.235 59.4455 116.817 59.7074C116.403 59.9692 116.052 60.3106 115.763 60.7315C115.478 61.1491 115.294 61.5949 115.211 62.0689L115.112 62.6555C115.006 63.3018 115.019 63.8438 115.152 64.2812C115.284 64.7154 115.525 65.0436 115.873 65.2656C116.221 65.4877 116.666 65.5987 117.21 65.5987C117.575 65.5987 117.904 65.5424 118.199 65.4297C118.494 65.317 118.751 65.1662 118.97 64.9773C119.189 64.785 119.364 64.5746 119.497 64.3459L120.287 64.6193C120.118 64.9408 119.88 65.2375 119.572 65.5092C119.267 65.781 118.904 65.9998 118.483 66.1655C118.065 66.3279 117.599 66.4091 117.086 66.4091ZM122.153 66.25L123.426 58.6136H124.286L124.087 59.7869H124.152C124.364 59.4025 124.68 59.0926 125.101 58.8572C125.525 58.6186 125.978 58.4993 126.458 58.4993C126.531 58.4993 126.613 58.5009 126.702 58.5043C126.792 58.5043 126.866 58.5076 126.926 58.5142L126.772 59.4141C126.732 59.4074 126.662 59.3975 126.563 59.3842C126.467 59.371 126.359 59.3643 126.24 59.3643C125.842 59.3643 125.474 59.4489 125.136 59.6179C124.801 59.7836 124.52 60.014 124.291 60.3089C124.065 60.6039 123.92 60.9403 123.853 61.3182L123.038 66.25H122.153ZM127.539 69.1136C127.363 69.1136 127.2 69.0971 127.051 69.0639C126.905 69.0308 126.791 68.9943 126.708 68.9545L127.081 68.174C127.36 68.2701 127.615 68.3 127.847 68.2635C128.082 68.2304 128.306 68.1177 128.518 67.9254C128.73 67.7332 128.939 67.4465 129.144 67.0653L129.562 66.2898L128.051 58.6136H128.97L130.164 65.0966H130.228L133.574 58.6136H134.573L129.875 67.4482C129.673 67.8293 129.449 68.1425 129.204 68.3878C128.962 68.633 128.7 68.8153 128.419 68.9347C128.14 69.054 127.847 69.1136 127.539 69.1136Z" fill="#111010"/>
<path d="M0.75 51.1C0.916667 50.6 1.4 49.45 2.2 47.65C3.03333 45.8833 4.13333 43.5167 5.5 40.55C6.9 37.55 8.55 34 10.45 29.9C12.35 25.8 14.4667 21.1833 16.8 16.05C16.9333 15.7833 17.0333 15.5 17.1 15.2C17.2 14.9 17.25 14.6333 17.25 14.4C17.25 14.0667 17.15 13.8 16.95 13.6C16.75 13.4 16.3667 13.3 15.8 13.3C14.4 13.3 13.25 13.7333 12.35 14.6C11.4833 15.4333 10.8333 16.4667 10.4 17.7C10 18.9333 9.8 20.15 9.8 21.35C9.8 21.65 9.81667 22 9.85 22.4C9.88333 22.8 9.93333 23.25 10 23.75C9.2 23.75 8.53333 23.5167 8 23.05C7.5 22.55 7.11667 21.95 6.85 21.25C6.58333 20.5167 6.45 19.8333 6.45 19.2C6.45 18.1333 6.75 17.1 7.35 16.1C7.98333 15.1 8.8 14.2 9.8 13.4C10.8 12.5667 11.9 11.9167 13.1 11.45C14.3333 10.9833 15.55 10.75 16.75 10.75C17.9833 10.75 19.0333 11.1 19.9 11.8C20.7667 12.4667 21.4333 13.7 21.9 15.5C22.3667 17.2667 22.6 19.8167 22.6 23.15C22.6 25.3167 22.5167 27.5167 22.35 29.75C22.2167 31.95 22.0667 34.0167 21.9 35.95C21.7333 37.8833 21.65 39.5333 21.65 40.9C22.3167 38.9333 23.1333 36.85 24.1 34.65C25.1 32.4167 26.1667 30.2167 27.3 28.05C28.4333 25.85 29.55 23.7833 30.65 21.85C31.75 19.9167 32.7333 18.2333 33.6 16.8C34.5 15.3333 35.1833 14.25 35.65 13.55C36.1167 12.8167 36.5333 12.2667 36.9 11.9C37.2667 11.5333 37.7667 11.35 38.4 11.35C38.8667 11.35 39.6 11.5333 40.6 11.9C40.3 12.5333 39.95 13.55 39.55 14.95C39.15 16.3167 38.7167 17.9167 38.25 19.75C37.75 21.75 37.25 23.95 36.75 26.35C36.25 28.7167 35.8 31.1167 35.4 33.55C35 35.9833 34.6667 38.3 34.4 40.5C34.1667 42.6667 34.05 44.5833 34.05 46.25C34.05 47.1167 34.0833 47.8 34.15 48.3C34.25 48.8 34.3667 49.2333 34.5 49.6C34.6667 50 34.85 50.5 35.05 51.1C33.6167 51.1 32.5167 50.8833 31.75 50.45C31.0167 50.0167 30.5167 49.3167 30.25 48.35C30.0167 47.4167 29.9 46.1667 29.9 44.6C29.9 40.9 30.3167 37.0167 31.15 32.95C32.0167 28.85 33.0167 24.6333 34.15 20.3C33.2167 21.6333 32.25 23.2167 31.25 25.05C30.25 26.8833 29.2667 28.8167 28.3 30.85C27.3333 32.8833 26.4167 34.9 25.55 36.9C24.6833 38.8667 23.9167 40.7 23.25 42.4C22.5833 44.0667 22.0667 45.4667 21.7 46.6C21.4 46.7 21.1833 46.7667 21.05 46.8C20.95 46.8333 20.8167 46.85 20.65 46.85C19.4833 46.85 18.7333 46.15 18.4 44.75C18.1 43.3167 17.95 41.3667 17.95 38.9C17.95 37.6 17.9667 36.2167 18 34.75C18.0333 33.25 18.0833 31.7333 18.15 30.2C18.2167 28.6333 18.2667 27.0833 18.3 25.55C18.3333 24.0167 18.35 22.55 18.35 21.15C18.35 20.65 18.3333 20.15 18.3 19.65C18.3 19.15 18.3 18.6667 18.3 18.2C15.7667 24.1 13.6167 29.15 11.85 33.35C10.1167 37.5167 8.63333 40.9167 7.4 43.55C6.16667 46.15 5.03333 48.05 4 49.25C2.96667 50.4833 1.88333 51.1 0.75 51.1ZM45.9113 48.95C43.778 48.95 42.128 48.3667 40.9613 47.2C39.828 46.0667 39.2613 44.6333 39.2613 42.9C39.2613 41.4333 39.628 39.8833 40.3613 38.25C41.128 36.5833 42.1447 35.0333 43.4113 33.6C44.678 32.1333 46.078 30.95 47.6113 30.05C49.1447 29.15 50.678 28.7 52.2113 28.7C53.078 28.7 53.8947 28.9333 54.6613 29.4C55.4613 29.8333 55.8613 30.7167 55.8613 32.05C55.8613 33.3167 55.4947 34.5 54.7613 35.6C54.028 36.7 53.0447 37.6833 51.8113 38.55C50.578 39.4167 49.2113 40.1333 47.7113 40.7C46.2447 41.2333 44.7613 41.5833 43.2613 41.75C43.228 41.8833 43.1947 42.0333 43.1613 42.2C43.1613 42.3333 43.1613 42.5667 43.1613 42.9C43.1613 43.0667 43.178 43.3667 43.2113 43.8C43.278 44.2 43.428 44.6333 43.6613 45.1C43.8947 45.5667 44.278 45.9667 44.8113 46.3C45.3447 46.6333 46.078 46.8 47.0113 46.8C48.4113 46.8 49.8113 46.4167 51.2113 45.65C52.6447 44.85 53.978 43.8 55.2113 42.5C56.478 41.2 57.528 39.75 58.3613 38.15L59.3613 38.95C58.4613 40.95 57.2947 42.7 55.8613 44.2C54.4613 45.7 52.8947 46.8667 51.1613 47.7C49.4613 48.5333 47.7113 48.95 45.9113 48.95ZM43.8113 39.9C44.678 39.8 45.6447 39.5 46.7113 39C47.778 38.5 48.7947 37.8667 49.7613 37.1C50.7613 36.3333 51.578 35.5 52.2113 34.6C52.8447 33.6667 53.1613 32.7333 53.1613 31.8C53.1613 31.4333 53.0947 31.1833 52.9613 31.05C52.828 30.9167 52.6113 30.85 52.3113 30.85C51.5447 30.85 50.7447 31.1333 49.9113 31.7C49.078 32.2333 48.2613 32.95 47.4613 33.85C46.6613 34.7167 45.9447 35.6833 45.3113 36.75C44.678 37.8167 44.178 38.8667 43.8113 39.9ZM59.6523 60.75C58.819 60.75 58.0357 60.5 57.3023 60C56.6023 59.5 56.2523 58.6833 56.2523 57.55C56.2523 56.4833 56.5523 55.5167 57.1523 54.65C57.7857 53.8167 58.6023 53.0333 59.6023 52.3C60.6357 51.6 61.7357 50.95 62.9023 50.35C64.069 49.75 65.2023 49.1833 66.3023 48.65C66.669 47.75 67.019 46.7833 67.3523 45.75C67.6857 44.7167 68.0023 43.6 68.3023 42.4C67.1357 43.8667 65.9023 45.0833 64.6023 46.05C63.3357 47.0167 62.0357 47.5 60.7023 47.5C59.369 47.5 58.3023 47.0333 57.5023 46.1C56.7357 45.1667 56.3523 43.9333 56.3523 42.4C56.3523 40.6333 56.7857 38.9833 57.6523 37.45C58.5523 35.8833 59.7023 34.5 61.1023 33.3C62.5023 32.0667 64.0023 31.1167 65.6023 30.45C67.2023 29.75 68.7357 29.4 70.2023 29.4C71.269 29.4 72.069 29.6 72.6023 30C73.1357 30.3667 73.4023 30.8 73.4023 31.3C73.4023 31.7 73.2857 32.0167 73.0523 32.25C72.819 32.4833 72.669 32.6167 72.6023 32.65C72.269 32.2833 71.919 32.05 71.5523 31.95C71.219 31.8167 70.819 31.75 70.3523 31.75C69.0523 31.75 67.8023 32.1167 66.6023 32.85C65.4023 33.5833 64.3357 34.5333 63.4023 35.7C62.5023 36.8333 61.7857 38.0167 61.2523 39.25C60.719 40.4833 60.4523 41.6 60.4523 42.6C60.4523 43.2667 60.6023 43.7833 60.9023 44.15C61.2023 44.4833 61.569 44.65 62.0023 44.65C62.9357 44.65 64.069 44.05 65.4023 42.85C66.7357 41.6167 68.019 40.1333 69.2523 38.4C69.319 38.1333 69.369 37.9 69.4023 37.7C69.469 37.4667 69.519 37.25 69.5523 37.05C69.8857 35.7167 70.2857 34.7333 70.7523 34.1C71.219 33.4667 71.869 33.15 72.7023 33.15C72.869 33.15 73.069 33.1667 73.3023 33.2C73.569 33.2333 73.8523 33.2833 74.1523 33.35C74.1523 33.95 73.9857 34.9333 73.6523 36.3C73.319 37.6667 72.869 39.2667 72.3023 41.1C71.7357 42.9 71.1023 44.75 70.4023 46.65C71.4357 46.2167 72.4857 45.6167 73.5523 44.85C74.619 44.05 75.6023 43.1 76.5023 42C77.4023 40.8667 78.0857 39.6167 78.5523 38.25L79.4523 39.15C78.919 40.6833 78.0857 42.0833 76.9523 43.35C75.8523 44.6167 74.6523 45.7167 73.3523 46.65C72.0523 47.55 70.8523 48.25 69.7523 48.75C68.8523 50.95 67.869 52.95 66.8023 54.75C65.769 56.5833 64.6523 58.0333 63.4523 59.1C62.2857 60.2 61.019 60.75 59.6523 60.75ZM59.4523 58.45C60.0523 58.45 60.869 57.8833 61.9023 56.75C62.969 55.6167 64.119 53.7 65.3523 51C64.119 51.6 62.9857 52.2167 61.9523 52.85C60.919 53.4833 60.0857 54.15 59.4523 54.85C58.819 55.55 58.5023 56.2833 58.5023 57.05C58.5023 57.4833 58.5857 57.8167 58.7523 58.05C58.9523 58.3167 59.1857 58.45 59.4523 58.45ZM80.1184 49.1C79.0184 49.1 78.0684 48.7333 77.2684 48C76.435 47.2667 76.0184 46.1667 76.0184 44.7C76.0184 43.5333 76.285 42.2667 76.8184 40.9C77.3517 39.5333 78.085 38.1833 79.0184 36.85C79.9517 35.5167 81.0184 34.3167 82.2184 33.25C83.4184 32.15 84.7017 31.2667 86.0684 30.6C87.435 29.9333 88.8017 29.6 90.1684 29.6C91.6017 29.6 92.8184 29.9667 93.8184 30.7C94.8184 31.4333 95.3184 32.4 95.3184 33.6C95.3184 34.5 95.0017 35.15 94.3684 35.55C93.735 35.95 92.985 36.0667 92.1184 35.9C92.185 35.6 92.235 35.3 92.2684 35C92.335 34.7 92.3684 34.3833 92.3684 34.05C92.3684 33.3833 92.235 32.7833 91.9684 32.25C91.7017 31.7167 91.135 31.45 90.2684 31.45C89.335 31.45 88.385 31.7667 87.4184 32.4C86.4517 33.0333 85.5184 33.8667 84.6184 34.9C83.7517 35.9 82.9684 37.0167 82.2684 38.25C81.5684 39.45 81.0184 40.6333 80.6184 41.8C80.2184 42.9667 80.0184 44.0167 80.0184 44.95C80.0184 46.0167 80.4017 46.55 81.1684 46.55C81.935 46.55 82.785 46.1833 83.7184 45.45C84.6517 44.6833 85.585 43.7333 86.5184 42.6C87.485 41.4667 88.4017 40.3167 89.2684 39.15C90.135 37.95 90.885 36.9333 91.5184 36.1C91.6184 35.9333 91.7517 35.85 91.9184 35.85C92.0517 35.8833 92.3017 35.9667 92.6684 36.1C93.0684 36.2 93.435 36.3667 93.7684 36.6C94.1017 36.8333 94.2684 37.1333 94.2684 37.5C94.2684 37.8333 94.1184 38.2667 93.8184 38.8C93.5517 39.3 93.2184 39.8667 92.8184 40.5C92.4517 41.1 92.1184 41.7167 91.8184 42.35C91.5517 42.95 91.4184 43.5333 91.4184 44.1C91.4184 44.5333 91.535 44.95 91.7684 45.35C92.0017 45.7167 92.385 45.9 92.9184 45.9C93.7184 45.9 94.835 45.3167 96.2684 44.15C97.735 42.95 99.2184 40.9333 100.718 38.1L101.668 39.05C100.868 40.85 99.9017 42.45 98.7684 43.85C97.6684 45.2167 96.5017 46.2833 95.2684 47.05C94.035 47.85 92.785 48.25 91.5184 48.25C90.1517 48.25 89.135 47.8167 88.4684 46.95C87.8017 46.0833 87.435 45.15 87.3684 44.15C87.3684 44.0833 87.3684 44.0333 87.3684 44C87.3684 43.9667 87.3684 43.9333 87.3684 43.9C86.035 45.5 84.8017 46.7667 83.6684 47.7C82.5684 48.6333 81.385 49.1 80.1184 49.1ZM116.385 47.75C115.085 47.75 114.085 47.4167 113.385 46.75C112.718 46.1167 112.385 45.3 112.385 44.3C112.385 43.6333 112.502 42.9333 112.735 42.2C112.968 41.4333 113.202 40.6667 113.435 39.9C113.668 39.1333 113.785 38.4 113.785 37.7C113.785 36.9667 113.602 36.4667 113.235 36.2C112.902 35.9 112.502 35.75 112.035 35.75C111.035 35.75 110.002 36.1667 108.935 37C107.902 37.8 106.885 38.8167 105.885 40.05C104.918 41.2833 104.002 42.5667 103.135 43.9C102.268 45.2333 101.518 46.4333 100.885 47.5C100.252 47.5 99.6518 47.3833 99.0852 47.15C98.5185 46.95 98.0352 46.5833 97.6352 46.05C97.6685 45.8833 97.8685 45.3833 98.2352 44.55C98.5685 43.6833 98.9518 42.6667 99.3852 41.5C99.8185 40.3 100.202 39.05 100.535 37.75C100.868 36.45 101.035 35.2667 101.035 34.2C101.268 33.9333 101.618 33.6667 102.085 33.4C102.585 33.1333 103.102 33 103.635 33C104.802 33 105.385 33.5 105.385 34.5C105.385 34.9 105.302 35.5 105.135 36.3C105.002 37.0667 104.802 37.95 104.535 38.95C105.402 37.7833 106.352 36.6833 107.385 35.65C108.418 34.6167 109.485 33.7833 110.585 33.15C111.718 32.4833 112.852 32.15 113.985 32.15C115.418 32.15 116.468 32.6333 117.135 33.6C117.835 34.5667 118.185 35.6333 118.185 36.8C118.185 37.8 118.018 38.7333 117.685 39.6C117.352 40.4667 117.018 41.2833 116.685 42.05C116.385 42.8167 116.235 43.5667 116.235 44.3C116.235 44.8333 116.352 45.2167 116.585 45.45C116.852 45.65 117.135 45.75 117.435 45.75C118.235 45.75 119.068 45.3667 119.935 44.6C120.802 43.8333 121.618 42.8667 122.385 41.7C123.185 40.5 123.885 39.3 124.485 38.1L125.335 38.8C124.635 40.4333 123.835 41.9333 122.935 43.3C122.068 44.6333 121.085 45.7167 119.985 46.55C118.918 47.35 117.718 47.75 116.385 47.75ZM132.018 18.2C131.618 17.9667 131.235 17.6667 130.868 17.3C130.501 16.9333 130.318 16.55 130.318 16.15C130.318 15.6167 130.568 15.05 131.068 14.45C131.568 13.8167 132.101 13.1833 132.668 12.55C133.235 11.8833 133.618 11.25 133.818 10.65C134.285 10.65 134.718 10.8333 135.118 11.2C135.518 11.5333 135.718 11.9333 135.718 12.4C135.718 12.8667 135.485 13.45 135.018 14.15C134.585 14.8167 134.085 15.5 133.518 16.2C132.951 16.9 132.451 17.5667 132.018 18.2ZM136.733 49.3C135.066 49.3 133.716 48.95 132.683 48.25C131.683 47.5833 130.966 46.7333 130.533 45.7C130.099 44.6333 129.883 43.55 129.883 42.45C129.883 41.4833 130.016 40.7333 130.283 40.2C130.549 39.6667 130.883 39.2833 131.283 39.05C131.683 38.7833 132.049 38.5833 132.383 38.45C132.749 38.3167 133.016 38.1667 133.183 38C134.016 37.1333 134.866 36.1333 135.733 35C136.633 33.8333 137.399 32.55 138.033 31.15V30.65C138.033 29.3167 138.249 28.3833 138.683 27.85C139.149 27.2833 139.683 27 140.283 27C140.683 27 140.966 27.1 141.133 27.3C141.333 27.5 141.449 27.7333 141.483 28C141.483 28.2 141.433 28.4333 141.333 28.7C141.266 28.9667 141.233 29.3333 141.233 29.8C141.233 30.8 141.466 31.95 141.933 33.25C142.433 34.5167 142.916 35.8667 143.383 37.3C143.883 38.7333 144.133 40.2 144.133 41.7C144.133 42.1 144.116 42.4667 144.083 42.8C144.049 43.1333 143.999 43.45 143.933 43.75C144.966 43.4833 145.983 42.9167 146.983 42.05C147.983 41.15 148.933 39.8333 149.833 38.1L150.433 38.55C149.799 40.45 148.883 41.9833 147.683 43.15C146.483 44.2833 145.083 44.9833 143.483 45.25C142.949 46.6167 142.066 47.6333 140.833 48.3C139.633 48.9667 138.266 49.3 136.733 49.3ZM136.383 47.1C137.049 47.1 137.666 46.9333 138.233 46.6C138.799 46.2667 139.249 45.7833 139.583 45.15C138.216 44.85 136.983 44.3167 135.883 43.55C134.783 42.7833 133.933 42 133.333 41.2C132.866 41.3 132.633 41.75 132.633 42.55C132.633 43.65 132.949 44.6833 133.583 45.65C134.216 46.6167 135.149 47.1 136.383 47.1ZM139.983 43.65C140.049 43.4167 140.083 43.15 140.083 42.85C140.116 42.5167 140.133 42.2667 140.133 42.1C140.099 40.6 139.899 39.1167 139.533 37.65C139.166 36.1833 138.799 34.6833 138.433 33.15C137.833 34.1833 137.133 35.3 136.333 36.5C135.533 37.7 134.783 38.6667 134.083 39.4C134.616 40.3 135.399 41.15 136.433 41.95C137.466 42.75 138.649 43.3167 139.983 43.65Z" fill="#BE768B"/>
</svg>
